<?xml version="1.0" encoding="UTF-8"?>
<svg version="1.1" xmlns="http://www.w3.org/2000/svg" width="512" height="512">
<path d="M0 0 C1.39351685 0.85440674 1.39351685 0.85440674 2.81518555 1.72607422 C4.40810425 2.68839966 4.40810425 2.68839966 6.03320312 3.67016602 C6.58956451 4.01365082 7.1459259 4.35713562 7.71914673 4.71102905 C10.09614294 6.17848794 12.48842717 7.62017108 14.87992859 9.06382751 C16.12122313 9.81352228 17.36170572 10.56456298 18.60139465 11.31690979 C24.82793816 15.09171265 31.13363677 18.72441035 37.4519043 22.34326172 C46.2083966 27.37497744 54.92949811 32.46068198 63.61694336 37.6105957 C71.13209512 42.06489158 78.66403625 46.49007056 86.2019043 50.90576172 C87.11729477 51.44206207 87.11729477 51.44206207 88.05117798 51.98919678 C91.16785722 53.81512593 94.28468998 55.64079278 97.40161133 57.46630859 C102.87998417 60.67505709 108.35692677 63.88624522 113.83395386 67.09729004 C116.8523765 68.86688438 119.87089535 70.6363146 122.8894043 72.40576172 C124.09773809 73.11409427 125.30607142 73.8224276 126.5144043 74.53076172 C127.1125293 74.88138672 127.7106543 75.23201172 128.3269043 75.59326172 C133.76440428 78.78076171 133.76440428 78.78076171 135.57676697 79.84318542 C136.78555317 80.55178142 137.99434427 81.26036907 139.20314026 81.96894836 C142.21708489 83.73569452 145.23094526 85.50258409 148.24462891 87.26977539 C155.02595131 91.24603029 161.80937182 95.21866165 168.59562683 99.18649292 C171.68295759 100.99222163 174.76873275 102.80051196 177.85107422 104.61474609 C178.44172165 104.96238007 179.03236908 105.31001404 179.64091492 105.66818237 C180.51415154 106.18217087 180.51415154 106.18217087 181.4050293 106.70654297 C185.62861003 109.19146022 189.86607028 111.64780985 194.1237793 114.07373047 C205.48054387 120.60043233 215.42650871 126.33301874 219.1394043 139.65576172 C220.18813406 144.65907664 220.25790682 149.44745591 220.2019043 154.53076172 C220.19739258 155.31451172 220.19288086 156.09826172 220.18823242 156.90576172 C220.17654523 158.82246186 220.15861338 160.7391222 220.1394043 162.65576172 C221.4078418 162.86845703 222.6762793 163.08115234 223.9831543 163.30029297 C229.81880695 164.60785243 234.52368274 167.32640071 239.6394043 170.34326172 C240.61901123 170.90980469 241.59861816 171.47634766 242.60791016 172.06005859 C245.79387616 173.91067265 248.96730503 175.78149013 252.1394043 177.65576172 C253.26362793 178.31527832 254.38785156 178.97479492 255.54614258 179.65429688 C258.9368171 181.64578287 262.32089575 183.64791455 265.7019043 185.65576172 C266.7537793 186.27797607 267.8056543 186.90019043 268.8894043 187.54125977 C276.4874501 192.09922271 282.5017321 196.21251163 287.6394043 203.59326172 C288.3509668 204.59228516 289.0625293 205.59130859 289.7956543 206.62060547 C296.15433553 216.87013672 299.34126394 228.17375838 301.90112305 239.84716797 C302.22025191 241.25039828 302.54082417 242.65330102 302.86274719 244.05589294 C303.69622559 247.69935661 304.51549723 251.34583412 305.32995605 254.99359131 C306.64069604 260.86133407 307.96536405 266.7258091 309.3056736 272.58686638 C309.76706827 274.61977259 310.2171755 276.65494837 310.66642761 278.69056702 C310.94714615 279.9263298 311.22786469 281.16209259 311.51708984 282.43530273 C311.75880417 283.51892593 312.00051849 284.60254913 312.2495575 285.7190094 C313.66756593 290.39884818 316.06335269 293.8113688 319.43237305 297.29248047 C320.05885742 297.94684082 320.6853418 298.60120117 321.33081055 299.27539062 C322.31887695 300.29898682 322.31887695 300.29898682 323.3269043 301.34326172 C339.42969022 318.3487563 349.62772342 333.99216287 349.57299805 358.01904297 C349.57756989 359.38283037 349.58287841 360.74661549 349.58888245 362.11039734 C349.59775447 364.94861301 349.59545431 367.78654632 349.58544922 370.62475586 C349.57389814 374.25414678 349.59429282 377.88257354 349.62336636 381.51183796 C349.64172989 384.31977971 349.64143689 387.12748957 349.63572884 389.9354763 C349.63550207 391.92131569 349.65236713 393.90713342 349.66954041 395.89289856 C349.66015945 397.10153061 349.6507785 398.31016266 349.64111328 399.55541992 C349.64086403 401.14565727 349.64086403 401.14565727 349.64060974 402.76802063 C349.01306791 406.38366041 347.65082754 408.02742693 345.1394043 410.65576172 C342.52758789 412.45410156 342.52758789 412.45410156 339.5378418 414.11669922 C338.42135254 414.74519775 337.30486328 415.37369629 336.15454102 416.02124023 C334.94118639 416.69112471 333.72780682 417.36096401 332.5144043 418.03076172 C331.25219309 418.73784532 329.99064665 419.44611678 328.72973633 420.15551758 C326.13527809 421.61455374 323.53850594 423.06933862 320.94018555 424.52148438 C315.26687316 427.69917797 309.64134441 430.95937947 304.0144043 434.21826172 C301.86607015 435.45932606 299.71763255 436.70021134 297.5690918 437.94091797 C296.50916016 438.55338379 295.44922852 439.16584961 294.35717773 439.796875 C288.9526978 442.91900779 283.54590323 446.03712698 278.1394043 449.15576172 C277.06819336 449.77386719 275.99698242 450.39197266 274.89331055 451.02880859 C269.45294355 454.16798546 264.01177475 457.30575801 258.5690918 460.44091797 C247.64052571 466.73777248 236.72193423 473.05101992 225.8269043 479.40576172 C224.82449707 479.99043213 223.82208984 480.57510254 222.78930664 481.17749023 C217.62991442 484.16546566 217.62991442 484.16546566 212.59008789 487.34667969 C209.9342173 488.76536649 209.00340385 488.84150799 206.10424805 488.42919922 C199.38012692 488.20380968 194.29989931 491.93475628 188.7019043 495.28076172 C187.63391602 495.89822266 186.56592773 496.51568359 185.46557617 497.15185547 C181.37561787 499.52538045 177.31025052 501.93216452 173.28759766 504.41821289 C172.41369385 504.95679932 171.53979004 505.49538574 170.6394043 506.05029297 C169.87756836 506.52829346 169.11573242 507.00629395 168.33081055 507.4987793 C163.15468803 510.23158284 158.17036568 510.18449151 152.6394043 508.59326172 C138.40142082 503.11139003 128.50553225 491.16129041 122.18725586 477.61425781 C116.44796723 464.16022376 114.81610585 452.13234757 115.1394043 437.65576172 C114.07713623 437.25768311 114.07713623 437.25768311 112.9934082 436.8515625 C110.00503889 435.59946388 107.28720817 434.13218624 104.4753418 432.52294922 C103.36650635 431.88953613 102.2576709 431.25612305 101.11523438 430.60351562 C99.91483173 429.91281651 98.71455833 429.22189273 97.5144043 428.53076172 C96.26662359 427.81506577 95.01882049 427.09940884 93.77099609 426.38378906 C85.1250205 421.41609346 76.52783919 416.3682221 67.9519043 411.28076172 C66.83396484 410.61947266 65.71602539 409.95818359 64.56420898 409.27685547 C59.6279159 406.35055876 54.71071275 403.40360189 49.84643555 400.35888672 C48.66827271 399.63258057 48.66827271 399.63258057 47.46630859 398.89160156 C46.05061305 398.01666122 44.64360466 397.1274186 43.24804688 396.22070312 C41.22314262 394.92084319 41.22314262 394.92084319 38.1394043 393.65576172 C34.32612209 394.82033731 30.96041752 396.78331569 27.4987793 398.73779297 C26.42756836 399.34042969 25.35635742 399.94306641 24.25268555 400.56396484 C23.14280273 401.19238281 22.03291992 401.82080078 20.8894043 402.46826172 C17.63567065 404.3020798 14.38183104 406.13566202 11.12548828 407.96484375 C9.24656068 409.02881665 7.37504144 410.10608953 5.51464844 411.20214844 C4.73726318 411.65477051 3.95987793 412.10739258 3.15893555 412.57373047 C2.49740479 412.96713623 1.83587402 413.36054199 1.15429688 413.76586914 C-3.95228017 416.0212276 -9.72756856 415.23232683 -14.9230957 413.59326172 C-28.94103376 407.52916377 -39.17863377 393.41408858 -44.69506836 379.56005859 C-46.24434061 375.30563073 -47.59446133 371.00201143 -48.8605957 366.65576172 C-50.75769558 367.59069611 -52.65322148 368.52882468 -54.5480957 369.46826172 C-55.60383789 369.99033203 -56.65958008 370.51240234 -57.74731445 371.05029297 C-60.82498785 372.58301789 -60.82498785 372.58301789 -63.48950195 374.30029297 C-67.7889965 376.75815888 -72.27541856 377.11485352 -77.1262207 376.25341797 C-90.98282403 372.15942153 -100.26723079 361.36839873 -107.109375 349.11743164 C-115.15215897 333.99307945 -117.23995938 319.45314246 -116.8605957 302.65576172 C-117.56442383 302.25373535 -118.26825195 301.85170898 -118.9934082 301.4375 C-125.86620873 297.50650035 -132.72537316 293.55303101 -139.56860352 289.57080078 C-141.57645058 288.40278295 -143.58582981 287.23738728 -145.59790039 286.07666016 C-147.82181056 284.787711 -150.03088655 283.47720127 -152.2355957 282.15576172 C-152.86336914 281.79627441 -153.49114258 281.43678711 -154.13793945 281.06640625 C-158.46678509 278.42140409 -160.90672977 275.26596732 -162.8605957 270.65576172 C-163.39404297 266.98706055 -163.39404297 266.98706055 -163.42700195 263.11279297 C-163.43320053 262.42191086 -163.43939911 261.73102875 -163.44578552 261.01921082 C-163.45283805 259.5713338 -163.44979009 258.12337491 -163.43701172 256.67553711 C-163.42305851 254.4623618 -163.45737397 252.25335205 -163.49536133 250.04052734 C-163.49631192 248.62711486 -163.49445691 247.21369709 -163.48950195 245.80029297 C-163.49022705 244.52516846 -163.49095215 243.25004395 -163.49169922 241.9362793 C-162.8605957 238.65576172 -162.8605957 238.65576172 -160.32128906 236.20922852 C-159.50926025 235.69658447 -158.69723145 235.18394043 -157.8605957 234.65576172 C-158.21421142 234.08671521 -158.56782713 233.5176687 -158.93215847 232.93137836 C-163.03610227 225.6857753 -163.57245749 219.70540247 -163.49169922 211.48266602 C-163.49885452 210.2017659 -163.50600983 208.92086578 -163.51338196 207.60115051 C-163.53175905 204.11777801 -163.51904954 200.63517939 -163.49929166 197.15183997 C-163.48280691 193.49467683 -163.4917308 189.83755891 -163.49681091 186.18037415 C-163.50131812 180.04663839 -163.48554073 173.913209 -163.45751953 167.77954102 C-163.42540201 160.69470127 -163.42551528 153.61041158 -163.4427343 146.52553242 C-163.45860518 139.69321418 -163.45186694 132.86109706 -163.43479729 126.02878761 C-163.42793671 123.12734413 -163.42894867 120.22606235 -163.43634224 117.3246212 C-163.44543675 113.27673195 -163.42145678 109.22969127 -163.39404297 105.18188477 C-163.40056885 103.98127411 -163.40709473 102.78066345 -163.41381836 101.54367065 C-163.32026309 93.43331367 -163.32026309 93.43331367 -160.98851013 89.48902893 C-158.54568296 87.38445419 -156.10467664 85.6930341 -153.3293457 84.04638672 C-152.22333008 83.38316406 -151.11731445 82.71994141 -149.9777832 82.03662109 C-148.77209897 81.32625837 -147.56636851 80.61597409 -146.3605957 79.90576172 C-145.10217961 79.15481916 -143.84437741 78.40284699 -142.5871582 77.64990234 C-139.97623524 76.08731201 -137.36273319 74.52917389 -134.74731445 72.97412109 C-129.33868891 69.75380529 -123.96279089 66.47995688 -118.58642578 63.20617676 C-115.67936801 61.43681531 -112.76984982 59.67150862 -109.8605957 57.90576172 C-108.69391743 57.19744749 -107.52725076 56.48911417 -106.3605957 55.78076172 C-71.36059571 34.53076172 -71.36059571 34.53076172 -69.61088562 33.46844482 C-68.44324418 32.75951494 -67.27561114 32.05057124 -66.10798645 31.34161377 C-63.20630211 29.57979472 -60.3044763 27.81820957 -57.40234375 26.05712891 C-51.97369322 22.76256164 -46.54648043 19.4656928 -41.12405396 16.16088867 C-38.58502969 14.61361998 -36.04522904 13.06762823 -33.50537109 11.52172852 C-32.30413767 10.79010454 -31.10327767 10.05786702 -29.90283203 9.32495117 C-27.19152319 7.66968654 -24.47571053 6.02315553 -21.74975586 4.39208984 C-19.92282128 3.29413829 -18.10803362 2.17548268 -16.3112793 1.02880859 C-15.5476709 0.56023437 -14.7840625 0.09166016 -13.99731445 -0.39111328 C-13.35882568 -0.7968457 -12.72033691 -1.20257813 -12.0625 -1.62060547 C-7.78061751 -3.02780135 -3.9689676 -1.86507942 0 0 Z " fill="#4E417C" transform="translate(162.860595703125,2.34423828125)"/>
<path d="M0 0 C1.39351685 0.85440674 1.39351685 0.85440674 2.81518555 1.72607422 C4.40810425 2.68839966 4.40810425 2.68839966 6.03320312 3.67016602 C6.58956451 4.01365082 7.1459259 4.35713562 7.71914673 4.71102905 C10.09614294 6.17848794 12.48842717 7.62017108 14.87992859 9.06382751 C16.12122313 9.81352228 17.36170572 10.56456298 18.60139465 11.31690979 C24.82793816 15.09171265 31.13363677 18.72441035 37.4519043 22.34326172 C46.2083966 27.37497744 54.92949811 32.46068198 63.61694336 37.6105957 C71.13209512 42.06489158 78.66403625 46.49007056 86.2019043 50.90576172 C87.11729477 51.44206207 87.11729477 51.44206207 88.05117798 51.98919678 C91.16785722 53.81512593 94.28468998 55.64079278 97.40161133 57.46630859 C102.87998417 60.67505709 108.35692677 63.88624522 113.83395386 67.09729004 C116.8523765 68.86688438 119.87089535 70.6363146 122.8894043 72.40576172 C124.09773809 73.11409427 125.30607142 73.8224276 126.5144043 74.53076172 C127.1125293 74.88138672 127.7106543 75.23201172 128.3269043 75.59326172 C133.76440428 78.78076171 133.76440428 78.78076171 135.57676697 79.84318542 C136.78555317 80.55178142 137.99434427 81.26036907 139.20314026 81.96894836 C142.21708489 83.73569452 145.23094526 85.50258409 148.24462891 87.26977539 C155.02595131 91.24603029 161.80937182 95.21866165 168.59562683 99.18649292 C171.68295759 100.99222163 174.76873275 102.80051196 177.85107422 104.61474609 C178.44172165 104.96238007 179.03236908 105.31001404 179.64091492 105.66818237 C180.51415154 106.18217087 180.51415154 106.18217087 181.4050293 106.70654297 C185.62861003 109.19146022 189.86607028 111.64780985 194.1237793 114.07373047 C205.48054387 120.60043233 215.42650871 126.33301874 219.1394043 139.65576172 C220.18813406 144.65907664 220.25790682 149.44745591 220.2019043 154.53076172 C220.19739258 155.31451172 220.19288086 156.09826172 220.18823242 156.90576172 C220.17654523 158.82246186 220.15861338 160.7391222 220.1394043 162.65576172 C219.1906543 163.14302734 218.2419043 163.63029297 217.2644043 164.13232422 C205.38980246 170.29371637 193.86884599 177.00436198 182.33813477 183.78222656 C176.99510633 186.91170299 171.62995554 190.00261056 166.2644043 193.09326172 C165.18634521 193.71467041 164.10828613 194.3360791 162.99755859 194.97631836 C158.6149799 197.50213204 154.2316614 200.02666052 149.84838867 202.55126953 C137.24047601 209.81411643 124.63502407 217.08074189 112.08129883 224.43701172 C106.88678998 227.47989259 101.67812737 230.49379391 96.4440918 233.46826172 C95.34726074 234.09595459 94.25042969 234.72364746 93.12036133 235.37036133 C91.01923021 236.57207369 88.91364201 237.76603778 86.80297852 238.95092773 C80.09337725 242.80400569 75.67252242 245.75880893 73.54953957 253.53682709 C72.73731714 257.73311634 72.87491158 261.96572956 72.89990234 266.22509766 C72.8968811 267.78485069 72.8968811 267.78485069 72.89379883 269.37611389 C72.8902646 271.62411992 72.89100645 273.87213591 72.89557457 276.12014008 C72.90117857 279.67536369 72.89199299 283.23026246 72.87837219 286.78546143 C72.84127509 296.88986747 72.82274773 306.99416053 72.83398438 317.09863281 C72.83982146 323.28601506 72.82164953 329.47293661 72.78809547 335.66022491 C72.78012346 338.01899173 72.78144266 340.37780851 72.79211998 342.73656464 C72.80637922 346.02622544 72.79024855 349.31442475 72.76708984 352.60400391 C72.77885757 353.58274979 72.79062531 354.56149567 72.80274963 355.56990051 C72.76858901 358.03422484 72.70022986 360.25622746 72.1394043 362.65576172 C69.27594256 365.24504024 67.89904081 365.63166158 64.0612793 365.75341797 C58.31593965 364.59229039 53.34643271 361.06273236 48.3894043 358.09326172 C47.23960886 357.41581823 46.08920514 356.73940621 44.93823242 356.06396484 C41.9286606 354.29391218 38.92750454 352.51010181 35.92871094 350.72186279 C33.06991367 349.01853997 30.20595066 347.32395229 27.3425293 345.62841797 C23.98055757 343.63673668 20.6193493 341.64383509 17.26074219 339.64648438 C9.48423849 335.02559014 1.66926384 330.47638172 -6.1730957 325.96826172 C-14.92872859 320.93502883 -23.65066889 315.85085368 -32.33813477 310.70092773 C-39.85328652 306.24663186 -47.38522766 301.82145288 -54.9230957 297.40576172 C-55.53335602 297.04822815 -56.14361633 296.69069458 -56.77236938 296.32232666 C-59.88904862 294.49639751 -63.00588138 292.67073066 -66.12280273 290.84521484 C-69.79500685 288.69436097 -73.46658073 286.54243324 -77.13793945 284.39013672 C-78.03280815 283.86554367 -78.03280815 283.86554367 -78.945755 283.33035278 C-81.95565869 281.56582214 -84.96544427 279.80109033 -87.97509766 278.03613281 C-94.68046481 274.10421286 -101.38857931 270.17705403 -108.099823 266.25517273 C-112.92571063 263.43392942 -117.74496467 260.60151684 -122.5617981 257.7648468 C-126.10842581 255.67839158 -129.66487211 253.60999698 -133.22949219 251.55444336 C-136.07119119 249.91156769 -138.90229322 248.25056339 -141.7355957 246.59326172 C-142.7575 246.01044434 -143.7794043 245.42762695 -144.83227539 244.82714844 C-153.11217629 239.94717312 -160.13655083 234.24937924 -162.8605957 224.65576172 C-163.30304942 220.37808737 -163.28075294 216.12076696 -163.26464844 211.82324219 C-163.27151169 210.54278015 -163.27837494 209.26231812 -163.28544617 207.9430542 C-163.30332137 204.44730344 -163.30222061 200.95180444 -163.29650378 197.45602179 C-163.29340541 194.53337756 -163.29951117 191.61078124 -163.30554253 188.68814385 C-163.31956599 181.79400816 -163.31804313 174.89999646 -163.30664062 168.00585938 C-163.29514586 160.89895687 -163.30926253 153.79243113 -163.3360371 146.68557823 C-163.35819435 140.57497914 -163.36483191 134.46449834 -163.35896069 128.35386193 C-163.35559182 124.70792171 -163.35800196 121.06222332 -163.37521172 117.41631699 C-163.3935536 113.35379892 -163.37949379 109.29201521 -163.36230469 105.22949219 C-163.37197266 104.0241684 -163.38164062 102.8188446 -163.39160156 101.57699585 C-163.31928328 93.43320907 -163.31928328 93.43320907 -160.99049377 89.48605347 C-158.54591418 87.3853455 -156.1036677 85.69243548 -153.3293457 84.04638672 C-152.22333008 83.38316406 -151.11731445 82.71994141 -149.9777832 82.03662109 C-148.77209897 81.32625837 -147.56636851 80.61597409 -146.3605957 79.90576172 C-145.10217961 79.15481916 -143.84437741 78.40284699 -142.5871582 77.64990234 C-139.97623524 76.08731201 -137.36273319 74.52917389 -134.74731445 72.97412109 C-129.33868891 69.75380529 -123.96279089 66.47995688 -118.58642578 63.20617676 C-115.67936801 61.43681531 -112.76984982 59.67150862 -109.8605957 57.90576172 C-108.69391743 57.19744749 -107.52725076 56.48911417 -106.3605957 55.78076172 C-71.36059571 34.53076172 -71.36059571 34.53076172 -69.61088562 33.46844482 C-68.44324418 32.75951494 -67.27561114 32.05057124 -66.10798645 31.34161377 C-63.20630211 29.57979472 -60.3044763 27.81820957 -57.40234375 26.05712891 C-51.97369322 22.76256164 -46.54648043 19.4656928 -41.12405396 16.16088867 C-38.58502969 14.61361998 -36.04522904 13.06762823 -33.50537109 11.52172852 C-32.30413767 10.79010454 -31.10327767 10.05786702 -29.90283203 9.32495117 C-27.19152319 7.66968654 -24.47571053 6.02315553 -21.74975586 4.39208984 C-19.92282128 3.29413829 -18.10803362 2.17548268 -16.3112793 1.02880859 C-15.5476709 0.56023437 -14.7840625 0.09166016 -13.99731445 -0.39111328 C-13.35882568 -0.7968457 -12.72033691 -1.20257813 -12.0625 -1.62060547 C-7.78061751 -3.02780135 -3.9689676 -1.86507942 0 0 Z " fill="#FBED9C" transform="translate(162.860595703125,2.34423828125)"/>
<path d="M0 0 C3.95035786 1.819989 7.68452542 3.93044156 11.4375 6.125 C13.05458862 7.05203735 13.05458862 7.05203735 14.7043457 7.99780273 C17.56202169 9.64408384 20.41131652 11.30349995 23.25463867 12.97442627 C25.00363781 14.00213757 26.75461366 15.02641554 28.50585938 16.05029297 C31.90718229 18.0418682 35.29880628 20.04949905 38.6875 22.0625 C40.25359009 22.9898999 40.25359009 22.9898999 41.85131836 23.93603516 C49.40601855 28.47617608 55.38899548 32.59506053 60.5 39.9375 C61.2115625 40.93652344 61.923125 41.93554688 62.65625 42.96484375 C69.01493123 53.214375 72.20185964 64.51799667 74.76171875 76.19140625 C75.08084762 77.59463656 75.40141987 78.9975393 75.7233429 80.40013123 C76.55682129 84.04359489 77.37609294 87.6900724 78.19055176 91.33782959 C79.50129174 97.20557235 80.82595976 103.07004738 82.1662693 108.93110466 C82.62766397 110.96401087 83.0777712 112.99918665 83.52702332 115.0348053 C83.94810112 116.88844948 83.94810112 116.88844948 84.37768555 118.77954102 C84.61939987 119.86316422 84.8611142 120.94678741 85.1101532 122.06324768 C86.52816164 126.74308646 88.92394839 130.15560708 92.29296875 133.63671875 C92.91945313 134.2910791 93.5459375 134.94543945 94.19140625 135.61962891 C94.85011719 136.30202637 95.50882813 136.98442383 96.1875 137.6875 C112.07210888 154.46258671 122.52573228 170.40772167 122.72070312 194.09667969 C122.7501788 196.2631415 122.84360365 198.42143103 122.9375 200.5859375 C123.16785315 210.6229084 123.16785315 210.6229084 120.13452148 214.19970703 C117.81816142 215.7565058 115.56090208 216.90085414 113 218 C112.01128906 218.62648438 111.02257812 219.25296875 110.00390625 219.8984375 C109.19824219 220.38570312 108.39257812 220.87296875 107.5625 221.375 C106.73878906 221.87773437 105.91507813 222.38046875 105.06640625 222.8984375 C103 224 103 224 101 224 C101 219.05 101 214.1 101 209 C87.2768656 216.82856468 73.55831588 224.66447154 59.875 232.5625 C58.82828125 233.16602295 57.7815625 233.7695459 56.703125 234.39135742 C51.65223898 237.30559795 46.60578726 240.22706195 41.56991577 243.16716003 C39.16854378 244.56846941 36.76507136 245.96615285 34.36138916 247.36349487 C32.66315705 248.35277224 30.96801465 249.34734749 29.27294922 250.34204102 C28.2470166 250.93815186 27.22108398 251.5342627 26.1640625 252.1484375 C25.26123535 252.67614746 24.3584082 253.20385742 23.42822266 253.74755859 C21.24847546 254.87184003 19.39597986 255.54033458 17 256 C17.25523437 257.07636719 17.51046875 258.15273438 17.7734375 259.26171875 C18.55544677 264.07038495 19.02907669 268.45196814 17 273 C11.59923671 278.32215519 4.41250483 281.50418734 -2.36914062 284.72338867 C-4.68230996 285.8458425 -6.86562359 287.05781053 -9.06640625 288.3828125 C-12 290 -12 290 -14.375 289.5625 C-15.24125 289.046875 -16.1075 288.53125 -17 288 C-18.60344032 287.12366967 -20.20766404 286.24877184 -21.8125 285.375 C-23.20996569 284.58621838 -24.60635 283.79550392 -26 283 C-26.05379226 280.04142591 -26.09357093 277.08382279 -26.125 274.125 C-26.15013672 272.86236328 -26.15013672 272.86236328 -26.17578125 271.57421875 C-26.18222656 270.76855469 -26.18867188 269.96289062 -26.1953125 269.1328125 C-26.20578613 268.38918457 -26.21625977 267.64555664 -26.22705078 266.87939453 C-26 265 -26 265 -24 263 C-20.16634117 263.42596209 -16.64128619 264.7728262 -13 266 C-14.22848572 248.34051783 -22.77259909 234.6852795 -34.69921875 222.0859375 C-35.36429443 221.38218994 -36.02937012 220.67844238 -36.71459961 219.95336914 C-38.0408804 218.55836419 -39.37595847 217.17165437 -40.72094727 215.79467773 C-48.81563616 207.38185239 -51.28387879 199.13847391 -53.9375 188 C-54.28879782 186.56168476 -54.64077396 185.12353504 -54.9934082 183.68554688 C-57.03158512 175.31912949 -58.91282814 166.92644233 -60.6875 158.5 C-64.52092145 140.49296583 -69.54709401 119.64342614 -85.4140625 108.26953125 C-88.88564313 106.07523028 -92.4333634 104.03373857 -96 102 C-98.09175696 100.79142168 -100.18284323 99.58168217 -102.2734375 98.37109375 C-106.77476728 95.76687859 -111.28187408 93.17321777 -115.79296875 90.5859375 C-120.55459753 87.85100244 -125.26932207 85.04985147 -129.95166016 82.18139648 C-134.7452406 79.4166604 -139.56292474 78.65244903 -145 78 C-140.99346302 74.56137991 -136.80711358 72.10999454 -132.1875 69.625 C-124.88954087 65.63449404 -117.67600722 61.51823358 -110.5 57.3125 C-102.05741524 52.36814555 -93.60196337 47.44771333 -85.125 42.5625 C-84.04541016 41.94028564 -82.96582031 41.31807129 -81.85351562 40.67700195 C-79.6631748 39.41488483 -77.47274498 38.15292215 -75.28222656 36.89111328 C-70.93449891 34.38609257 -66.58821172 31.87858009 -62.2421875 29.37060547 C-60.08884498 28.12821764 -57.93520131 26.8863516 -55.78125 25.64501953 C-50.77168982 22.75739624 -45.76459543 19.86578155 -40.76715088 16.95724487 C-39.01729819 15.93911289 -37.26659057 14.92246667 -35.515625 13.90625 C-33.33423929 12.63963894 -31.15441975 11.3703247 -28.9765625 10.09765625 C-25.99897399 8.37096188 -23.00481243 6.67881206 -20 5 C-18.96327148 4.40590332 -17.92654297 3.81180664 -16.85839844 3.19970703 C-6.38253318 -2.5011203 -6.38253318 -2.5011203 0 0 Z " fill="#F6727D" transform="translate(390,166)"/>
<path d="M0 0 C6.83898038 1.20392809 12.50843345 5.19441812 18.328125 8.78125 C19.60403573 9.55093859 20.8809947 10.31889188 22.15893555 11.08520508 C24.81302022 12.67854737 27.46245492 14.27923547 30.10888672 15.88525391 C35.72711718 19.28681429 41.39926326 22.59569042 47.07141113 25.90625 C49.50367888 27.32680012 51.93334904 28.75176187 54.36306763 30.17666626 C61.26191656 34.22211182 68.16860005 38.25407002 75.078125 42.28125 C87.52269457 49.53450139 99.94813702 56.82022878 112.37255859 64.10791016 C116.03059363 66.25349418 119.6890523 68.39835499 123.34765625 70.54296875 C123.94477417 70.8929895 124.54189209 71.24301025 125.15710449 71.6036377 C126.96410397 72.66285436 128.77111264 73.72205533 130.578125 74.78125 C137.88722783 79.06553876 145.19609151 83.35023315 152.50390625 87.63671875 C159.69390893 91.85395972 166.88561354 96.06828942 174.078125 100.28125 C175.1815625 100.92787598 176.285 101.57450195 177.421875 102.24072266 C180.57723476 104.0890922 183.73359902 105.93572799 186.890625 107.78125 C187.86926514 108.35375488 188.84790527 108.92625977 189.85620117 109.51611328 C194.18607535 112.04178077 198.52443248 114.5450565 202.91015625 116.97265625 C203.64322998 117.37871094 204.37630371 117.78476563 205.1315918 118.203125 C206.44601472 118.92687089 207.76355302 119.64501005 209.08520508 120.35546875 C217.43514124 124.93856019 222.60388208 130.46677915 226.328125 139.21875 C228.33294673 147.4051054 227.99634988 154.93246682 227.078125 163.28125 C227.738125 163.61125 228.398125 163.94125 229.078125 164.28125 C228.91569431 164.84796386 228.75326363 165.41467772 228.5859108 165.99856472 C228.06313715 168.34862596 227.95342441 170.39942947 227.95355225 172.80421448 C227.95098923 173.70569214 227.94842621 174.6071698 227.94578552 175.53596497 C227.94788528 176.51739975 227.94998505 177.49883453 227.95214844 178.51000977 C227.9502803 179.54940704 227.94841217 180.58880432 227.94648743 181.65969849 C227.94248498 183.91594253 227.94040873 186.17219062 227.94002533 188.42843819 C227.93661246 193.21828571 227.91525876 198.00799715 227.89479446 202.7977972 C227.85673239 211.7183256 227.82551653 220.6387073 227.82763672 229.55932617 C227.82842149 235.76272664 227.80516413 241.96562749 227.7657547 248.16889763 C227.75526062 250.53602798 227.75379553 252.90321575 227.76140594 255.27035713 C227.7709735 258.5747552 227.74994877 261.87762501 227.72167969 265.18188477 C227.73187637 266.16534378 227.74207306 267.1488028 227.75257874 268.1620636 C227.71445303 270.63722504 227.64241703 272.8713403 227.078125 275.28125 C224.21404077 277.87362707 222.83984669 278.2570837 219 278.37890625 C213.25466035 277.21777867 208.28515341 273.68822064 203.328125 270.71875 C202.17832956 270.04130651 201.02792584 269.3648945 199.87695312 268.68945312 C196.8673813 266.91940046 193.86622524 265.13559009 190.86743164 263.34735107 C188.00863437 261.64402825 185.14467136 259.94944057 182.28125 258.25390625 C178.91927828 256.26222496 175.55807 254.26932337 172.19946289 252.27197266 C164.42295919 247.65107842 156.60798454 243.10187 148.765625 238.59375 C140.00999211 233.56051712 131.28805181 228.47634196 122.60058594 223.32641602 C115.08543418 218.87212014 107.55349305 214.44694116 100.015625 210.03125 C99.40536469 209.67371643 98.79510437 209.31618286 98.16635132 208.94781494 C95.04967208 207.12188579 91.93283932 205.29621894 88.81591797 203.47070312 C85.14371385 201.31984925 81.47213997 199.16792152 77.80078125 197.015625 C76.90591255 196.49103195 76.90591255 196.49103195 75.9929657 195.95584106 C72.98306201 194.19131043 69.97327644 192.42657861 66.96362305 190.66162109 C60.25825589 186.72970114 53.5501414 182.80254231 46.83889771 178.88066101 C42.01301007 176.0594177 37.19375603 173.22700512 32.37692261 170.39033508 C28.8302949 168.30387986 25.27384859 166.23548526 21.70922852 164.17993164 C18.86752951 162.53705597 16.03642748 160.87605167 13.203125 159.21875 C12.1812207 158.63593262 11.15931641 158.05311523 10.10644531 157.45263672 C1.82654442 152.5726614 -5.19783013 146.87486752 -7.921875 137.28125 C-8.36432872 133.00357565 -8.34203224 128.74625524 -8.32592773 124.44873047 C-8.33279099 123.16826843 -8.33965424 121.8878064 -8.34672546 120.56854248 C-8.36460067 117.07279172 -8.36349991 113.57729272 -8.35778308 110.08151007 C-8.35468471 107.15886584 -8.36079047 104.23626952 -8.36682183 101.31363213 C-8.38084529 94.41949644 -8.37932243 87.52548474 -8.36791992 80.63134766 C-8.35642515 73.52444515 -8.37054183 66.41791941 -8.3973164 59.31106651 C-8.41947365 53.20046742 -8.42611121 47.08998662 -8.42023998 40.97935021 C-8.41687111 37.33340999 -8.41928126 33.6877116 -8.43649101 30.04180527 C-8.4548329 25.97928721 -8.44077309 21.91750349 -8.42358398 17.85498047 C-8.43325195 16.64965668 -8.44291992 15.44433289 -8.45288086 14.20248413 C-8.38112055 6.12153091 -8.38112055 6.12153091 -6.13563538 2.01296997 C-3.921875 0.28125 -3.921875 0.28125 0 0 Z " fill="#FEB638" transform="translate(7.921875,89.71875)"/>
<path d="M0 0 C6.97912361 2.44481016 13.41902167 6.34143376 19.8125 10 C20.80644775 10.5667041 21.80039551 11.1334082 22.82446289 11.71728516 C25.88757026 13.47034303 28.94481252 15.23318025 32 17 C32.95165039 17.54881836 33.90330078 18.09763672 34.88378906 18.66308594 C37.57538537 20.22207516 40.25802506 21.79528493 42.9375 23.375 C43.73454346 23.83777344 44.53158691 24.30054688 45.3527832 24.77734375 C61.09736098 34.16491661 70.16979374 47.99698683 74.9140625 65.55078125 C76.6184729 72.36362622 78.0698569 79.23724184 79.57348633 86.09643555 C81.49783813 94.83742659 83.50677313 103.55388031 85.625 112.25 C85.90190674 113.42127441 86.17881348 114.59254883 86.46411133 115.79931641 C88.5421984 124.21621481 90.86228033 130.37681402 97.3125 136.4375 C108.86896108 147.63518206 124.38759788 164.20436478 125.09765625 181.359375 C125.08025391 182.54273438 125.08025391 182.54273438 125.0625 183.75 C125.05347656 184.54921875 125.04445313 185.3484375 125.03515625 186.171875 C125.01775391 187.07679688 125.01775391 187.07679688 125 188 C122.04356012 187.51871909 119.11213356 187.02491857 116.1875 186.375 C115.465625 186.25125 114.74375 186.1275 114 186 C111.88074396 188.11925604 112.58168983 192.6196093 112.4375 195.5625 C112.37272461 196.77196289 112.37272461 196.77196289 112.30664062 198.00585938 C112.20024738 200.00368805 112.09959112 202.0018207 112 204 C104.13592258 200.17604089 96.51784337 196.0880723 89 191.625 C86.8965103 190.38686999 84.79231395 189.14993994 82.6875 187.9140625 C81.59695313 187.2737207 80.50640625 186.63337891 79.3828125 185.97363281 C73.61253269 182.60708099 67.80560449 179.30508192 62 176 C52.33260825 170.49290252 42.7020205 164.92668721 33.10229492 159.30224609 C27.66459919 156.12169855 22.212072 152.96944602 16.73828125 149.8515625 C16.11992401 149.49922546 15.50156677 149.14688843 14.86447144 148.78387451 C11.87062333 147.07892425 8.87499075 145.37726878 5.87695312 143.6796875 C3.73316903 142.46114199 1.60396087 141.2164028 -0.50602722 139.94023132 C-3.9025852 137.92682827 -3.9025852 137.92682827 -7.43513489 136.78840637 C-11.45836205 135.11393843 -14.49986891 133.65169974 -17 130 C-19.51038749 121.78835315 -18.57906689 112.63368296 -18.375 104.16015625 C-18.35835123 101.59243084 -18.34703854 99.02466578 -18.34082031 96.45689392 C-18.31488669 91.08005011 -18.24895373 85.70618457 -18.14550781 80.33032227 C-18.00025647 72.77368199 -17.94722406 65.21838871 -17.90988541 57.66056263 C-17.87656595 51.7644225 -17.81297507 45.86854144 -17.75 39.97265625 C-17.73829773 38.72430559 -17.72659546 37.47595493 -17.71453857 36.18977547 C-17.67490256 32.64044236 -17.61443782 29.09211178 -17.546875 25.54321289 C-17.53723724 24.50345306 -17.52759949 23.46369324 -17.51766968 22.39242554 C-17.33947423 14.79475902 -16.26617584 8.2659593 -11.875 1.9375 C-7.7692837 -0.82939577 -4.79388422 -0.75554508 0 0 Z " fill="#B32F3A" transform="translate(252,244)"/>
<path d="M0 0 C2.37168293 4.6959322 3.75158236 9.38148766 5 14.5 C5.16951172 15.192146 5.33902344 15.88429199 5.51367188 16.59741211 C6.62980691 21.23095194 7.59454452 25.88267303 8.5 30.5625 C9.71266062 36.82245079 11.26929604 42.9292187 12.94921875 49.078125 C14.12296044 53.40955327 15.20169346 57.7616766 16.25 62.125 C16.5128479 63.19113525 16.5128479 63.19113525 16.78100586 64.27880859 C17.64614514 67.92328955 18.42778862 71.2638305 18 75 C16.45092773 76.55688477 16.45092773 76.55688477 14.24609375 77.87890625 C13.41964355 78.38437988 12.59319336 78.88985352 11.74169922 79.41064453 C10.38455811 80.19737549 10.38455811 80.19737549 9 81 C8.08879395 81.54124512 7.17758789 82.08249023 6.23876953 82.64013672 C3.19356044 84.43043782 0.13067999 86.18687633 -2.9375 87.9375 C-4.66523641 88.92887461 -6.39297018 89.92025385 -8.12054443 90.91191101 C-9.90223619 91.934108 -11.68468235 92.95497869 -13.46728516 93.97558594 C-19.02652277 97.15964638 -24.57578504 100.36101373 -30.125 103.5625 C-31.19983643 104.18237793 -32.27467285 104.80225586 -33.38208008 105.44091797 C-43.59818431 111.33692452 -53.78698631 117.27923754 -63.97070312 123.23095703 C-67.14056998 125.08208979 -70.31224385 126.93009404 -73.484375 128.77734375 C-74.55413574 129.4005249 -75.62389648 130.02370605 -76.72607422 130.66577148 C-78.75348142 131.84672282 -80.78113153 133.02725727 -82.80908203 134.20727539 C-84.19909424 135.01733032 -84.19909424 135.01733032 -85.6171875 135.84375 C-86.50889648 136.36324219 -87.40060547 136.88273438 -88.31933594 137.41796875 C-91.91083327 139.53754095 -95.46283059 141.72042303 -99.00830078 143.91601562 C-101 145 -101 145 -103 145 C-103.20044922 144.11256104 -103.40089844 143.22512207 -103.60742188 142.31079102 C-107.25507538 126.18894829 -110.93090183 110.07393378 -114.80029297 94.00363159 C-115.13837786 92.59861735 -115.47515646 91.19328805 -115.81054688 89.78762817 C-117.57587935 82.39917562 -119.454103 75.15984571 -122 68 C-100.83184386 55.41552796 -79.49648772 43.1287019 -58.10543823 30.92822266 C-49.85829881 26.22299126 -41.63607711 21.47689222 -33.4375 16.6875 C-32.46514404 16.1207959 -31.49278809 15.5540918 -30.4909668 14.97021484 C-25.77647782 12.21973013 -21.07431314 9.45108012 -16.390625 6.6484375 C-15.51092041 6.12677002 -14.63121582 5.60510254 -13.72485352 5.06762695 C-12.07709499 4.09019683 -10.43403365 3.10478823 -8.79663086 2.11010742 C-8.07354736 1.68318604 -7.35046387 1.25626465 -6.60546875 0.81640625 C-5.97793701 0.43943604 -5.35040527 0.06246582 -4.70385742 -0.32592773 C-3 -1 -3 -1 0 0 Z " fill="#604F98" transform="translate(451,222)"/>
<path d="M0 0 C3.60390122 1.41200702 6.94223634 2.98339878 10.32421875 4.87109375 C11.34467285 5.44013428 12.36512695 6.0091748 13.41650391 6.59545898 C15.03564697 7.50726929 15.03564697 7.50726929 16.6875 8.4375 C17.79786621 9.06277588 18.90823242 9.68805176 20.05224609 10.33227539 C26.77950205 14.13883032 33.49142456 17.96956159 40.125 21.9375 C40.82713623 22.34863037 41.52927246 22.75976074 42.25268555 23.18334961 C49.15504094 27.37955812 54.60572392 32.60790311 58.6875 39.625 C59.22761719 40.52476562 59.76773438 41.42453125 60.32421875 42.3515625 C64.98902933 51.6112255 66.87112878 62.31104752 69 72.375 C70.88116195 81.08658566 72.87159384 89.71224689 75.3359375 98.27734375 C76 101 76 101 76 105 C72.21481268 103.5839494 68.80250679 101.84578935 65.30078125 99.83203125 C64.18678955 99.19346191 63.07279785 98.55489258 61.92504883 97.89697266 C60.72080985 97.20224556 59.51662834 96.50741884 58.3125 95.8125 C57.06223969 95.09398315 55.81183054 94.37572523 54.5612793 93.65771484 C51.33661093 91.80512261 48.11429475 89.94847877 44.89257812 88.09075928 C41.9193195 86.37716585 38.94387112 84.66738896 35.96875 82.95703125 C33.74982963 81.67998347 31.53107255 80.40265193 29.3125 79.125 C28.32483643 78.55628174 27.33717285 77.98756348 26.31958008 77.40161133 C24.32292296 76.24919275 22.34473273 75.06426162 20.38500977 73.85009766 C17.67234101 72.36747206 15.3802494 71.41090643 12.48803711 70.44287109 C7.42931916 68.52576315 3.12606085 66.57314559 0 62 C-2.68804561 52.58239099 -1.6779152 42.25449508 -1.16729736 32.57250977 C-0.99217071 28.90025584 -0.91550391 25.22602203 -0.83007812 21.55078125 C-0.64868036 14.36175267 -0.35935376 7.18256945 0 0 Z " fill="#493C73" transform="translate(249,257)"/>
<path d="M0 0 C1.79437226 0.86943811 3.58532225 1.74593914 5.375 2.625 C6.37273437 3.11226562 7.37046875 3.59953125 8.3984375 4.1015625 C8.94485209 4.39257277 9.49126667 4.68358303 10.05423927 4.98341179 C11.54737595 5.76352063 13.07110676 6.48529714 14.60559654 7.1805439 C21.44791139 10.61463276 21.44791139 10.61463276 22.89653397 14.24969101 C23.23452804 17.04849966 23.23872602 19.68597652 23.13525391 22.50341797 C23.13744431 24.07018028 23.13744431 24.07018028 23.13967896 25.66859436 C23.13272621 29.11192606 23.0550333 32.54980517 22.9765625 35.9921875 C22.95790575 38.38254845 22.94367374 40.7729477 22.9336853 43.1633606 C22.89554669 49.44769312 22.79735509 55.72970536 22.68664551 62.01312256 C22.58425234 68.42769988 22.53865604 74.84265309 22.48828125 81.2578125 C22.38111061 93.83953026 22.21242152 106.4196416 22 119 C20.3311798 118.33874258 18.66527692 117.67013058 17 117 C16.02009944 116.64872229 16.02009944 116.64872229 15.02040291 116.29034805 C9.36133886 114.16154269 3.96855943 111.69186781 0 107 C-3.0496062 99.4103878 -1.97300125 90.61650914 -1.66015625 82.6171875 C-1.62841731 80.23260087 -1.6042334 77.84790276 -1.58726501 75.46316528 C-1.52259076 69.20969305 -1.35585557 62.96301886 -1.16729736 56.71221924 C-0.99284956 50.3247069 -0.91563763 43.93608678 -0.83007812 37.546875 C-0.64818226 25.02827539 -0.35836742 12.51470453 0 0 Z " fill="#E0903D" transform="translate(188,216)"/>
<path d="M0 0 C1.6688202 0.66125742 3.33472308 1.32986942 5 2 C5.97990056 2.35127771 5.97990056 2.35127771 6.97959709 2.70965195 C12.63866114 4.83845731 18.03144057 7.30813219 22 12 C25.0496062 19.5896122 23.97300125 28.38349086 23.66015625 36.3828125 C23.62841731 38.76739913 23.6042334 41.15209724 23.58726501 43.53683472 C23.52259076 49.79030695 23.35585557 56.03698114 23.16729736 62.28778076 C22.99284956 68.6752931 22.91563763 75.06391322 22.83007812 81.453125 C22.64818226 93.97172461 22.35836742 106.48529547 22 119 C21.35413563 118.66582597 20.70827126 118.33165194 20.04283524 117.98735142 C16.20544626 116.03004634 12.53881415 114.17746099 8.43963623 112.82737732 C4.62840439 111.38225317 2.63590548 110.14792868 0 107 C-2.26469103 99.31495113 -1.38870636 90.81877678 -1.171875 82.91015625 C-1.14948294 80.52123784 -1.13240637 78.13226417 -1.12042236 75.74327087 C-1.07468475 69.46669349 -0.95688774 63.19346881 -0.82397461 56.91821289 C-0.70103594 50.51038981 -0.64637349 44.1020228 -0.5859375 37.69335938 C-0.45738511 25.12747886 -0.25500329 12.56391802 0 0 Z " fill="#E0903D" transform="translate(147,192)"/>
<path d="M0 0 C1.79437226 0.86943811 3.58532225 1.74593914 5.375 2.625 C6.37273437 3.11226562 7.37046875 3.59953125 8.3984375 4.1015625 C8.94485209 4.39257277 9.49126667 4.68358303 10.05423927 4.98341179 C11.54737595 5.76352063 13.07110676 6.48529714 14.60559654 7.1805439 C21.44791139 10.61463276 21.44791139 10.61463276 22.89653397 14.24969101 C23.23452804 17.04849966 23.23872602 19.68597652 23.13525391 22.50341797 C23.13744431 24.07018028 23.13744431 24.07018028 23.13967896 25.66859436 C23.13272621 29.11192606 23.0550333 32.54980517 22.9765625 35.9921875 C22.95790575 38.38254845 22.94367374 40.7729477 22.9336853 43.1633606 C22.89554669 49.44769312 22.79735509 55.72970536 22.68664551 62.01312256 C22.58425234 68.42769988 22.53865604 74.84265309 22.48828125 81.2578125 C22.38111061 93.83953026 22.21242152 106.4196416 22 119 C20.3311798 118.33874258 18.66527692 117.67013058 17 117 C16.02009944 116.64872229 16.02009944 116.64872229 15.02040291 116.29034805 C9.36133886 114.16154269 3.96855943 111.69186781 0 107 C-3.0496062 99.4103878 -1.97300125 90.61650914 -1.66015625 82.6171875 C-1.62841731 80.23260087 -1.6042334 77.84790276 -1.58726501 75.46316528 C-1.52259076 69.20969305 -1.35585557 62.96301886 -1.16729736 56.71221924 C-0.99284956 50.3247069 -0.91563763 43.93608678 -0.83007812 37.546875 C-0.64818226 25.02827539 -0.35836742 12.51470453 0 0 Z " fill="#E0903D" transform="translate(65,143)"/>
<path d="M0 0 C1.6688202 0.66125742 3.33472308 1.32986942 5 2 C5.97990056 2.35127771 5.97990056 2.35127771 6.97959709 2.70965195 C12.63866114 4.83845731 18.03144057 7.30813219 22 12 C25.0496062 19.5896122 23.97300125 28.38349086 23.66015625 36.3828125 C23.62841731 38.76739913 23.6042334 41.15209724 23.58726501 43.53683472 C23.52259076 49.79030695 23.35585557 56.03698114 23.16729736 62.28778076 C22.99284956 68.6752931 22.91563763 75.06391322 22.83007812 81.453125 C22.64818226 93.97172461 22.35836742 106.48529547 22 119 C21.35413563 118.66582597 20.70827126 118.33165194 20.04283524 117.98735142 C16.20544626 116.03004634 12.53881415 114.17746099 8.43963623 112.82737732 C4.62840439 111.38225317 2.63590548 110.14792868 0 107 C-2.26469103 99.31495113 -1.38870636 90.81877678 -1.171875 82.91015625 C-1.14948294 80.52123784 -1.13240637 78.13226417 -1.12042236 75.74327087 C-1.07468475 69.46669349 -0.95688774 63.19346881 -0.82397461 56.91821289 C-0.70103594 50.51038981 -0.64637349 44.1020228 -0.5859375 37.69335938 C-0.45738511 25.12747886 -0.25500329 12.56391802 0 0 Z " fill="#E0903D" transform="translate(24,119)"/>
<path d="M0 0 C3.49436345 1.1376734 6.68967765 2.21246061 9.83203125 4.12890625 C10.48494141 4.52400391 11.13785156 4.91910156 11.81054688 5.32617188 C12.47119141 5.73416016 13.13183594 6.14214844 13.8125 6.5625 C14.49248047 6.97435547 15.17246094 7.38621094 15.87304688 7.81054688 C20.83047672 10.83047672 20.83047672 10.83047672 22 12 C22.09543095 13.39143689 22.12188575 14.78768367 22.12025452 16.18238831 C22.12162918 17.08407745 22.12300385 17.9857666 22.12442017 18.91477966 C22.12082489 19.91171341 22.11722961 20.90864716 22.11352539 21.93579102 C22.11367142 22.97956909 22.11381744 24.02334717 22.1139679 25.09875488 C22.11326826 28.56715943 22.10547353 32.03551103 22.09765625 35.50390625 C22.09579225 37.90144318 22.09436826 40.2989805 22.09336853 42.69651794 C22.08954194 49.02095584 22.07971046 55.34537094 22.06866455 61.6697998 C22.05845345 68.11775402 22.05387156 74.56571191 22.04882812 81.01367188 C22.03808832 93.675791 22.02120119 106.33789429 22 119 C19.83211118 117.77295057 17.66569538 116.54341054 15.5 115.3125 C14.89929688 114.97283203 14.29859375 114.63316406 13.6796875 114.28320312 C12.43575087 113.57521791 11.19899985 112.85448333 9.96910858 112.12237072 C7.98891085 110.95610992 7.98891085 110.95610992 5.77802277 109.97678852 C0.42474217 107.28136598 0.42474217 107.28136598 -0.70863342 103.86218834 C-0.98904863 101.10937834 -0.98995117 98.46794203 -0.90820312 95.7019043 C-0.90937134 94.66729568 -0.91053955 93.63268707 -0.91174316 92.56672668 C-0.90617488 89.15118578 -0.84397727 85.7391485 -0.78125 82.32421875 C-0.76632713 79.95483813 -0.75494033 77.58543281 -0.74694824 75.21601868 C-0.71641874 68.98301913 -0.63784524 62.75151365 -0.54931641 56.519104 C-0.46744451 50.15812391 -0.43093367 43.79690211 -0.390625 37.43554688 C-0.30485464 24.9563752 -0.16833504 12.47831189 0 0 Z " fill="#E0903D" transform="translate(106,168)"/>
<path d="M0 0 C0 5.28 0 10.56 0 16 C-2.64135065 17.52385614 -5.28270458 19.04770659 -7.92407227 20.5715332 C-10.25273964 21.91502683 -12.5813607 23.25860035 -14.90991211 24.60229492 C-20.91129918 28.0652474 -26.91352544 31.52672393 -32.91796875 34.984375 C-47.11315352 43.16082424 -47.11315352 43.16082424 -61.25 51.4375 C-66.48467604 54.52693166 -71.72951432 57.59697212 -77 60.625 C-78.7015625 61.60339844 -78.7015625 61.60339844 -80.4375 62.6015625 C-83 64 -83 64 -84 64 C-84 58.39 -84 52.78 -84 47 C-82.8346875 46.36835938 -81.669375 45.73671875 -80.46875 45.0859375 C-70.05151555 39.41234222 -59.7509048 33.56844002 -49.52099609 27.56396484 C-40.2622254 22.13457562 -30.94656516 16.80846833 -21.61523438 11.50512695 C-15.65580189 8.11242793 -9.74480538 4.67101601 -3.92138672 1.04882812 C-2 0 -2 0 0 0 Z " fill="#473769" transform="translate(491,375)"/>
<path d="M0 0 C9.11156468 4.83470779 13.79613736 12.83744641 16.75 22.4375 C17.45567456 29.67066426 17.63145196 35.5440854 14 42 C10.17586794 44.54942138 8.54576584 44.59616601 4 44 C-4.73138765 39.56688233 -9.74156852 30.91781248 -13 22 C-14.66092076 16.26227373 -14.82336063 10.22307371 -12.75 4.625 C-9.03735057 -0.94397414 -6.57897079 -1.70145796 0 0 Z " fill="#AB9DDB" transform="translate(308,444)"/>
<path d="M0 0 C8.62504174 4.4005315 13.35147882 12.32204324 17 21 C18.68838163 26.38572368 19.14027896 32.90341307 17.17578125 38.23828125 C15.75856911 40.78294096 14.65077944 42.67461028 12 44 C7.03892798 44.59875007 4.0514088 44.47620216 -0.125 41.625 C-8.00837256 35.02712827 -12.20384779 25.20468604 -13.31640625 15.13671875 C-13.56933546 9.10721274 -13.06179056 5.53964827 -9 1 C-5.89046621 -0.5547669 -3.43733239 -0.28644437 0 0 Z " fill="#AB9DDB" transform="translate(142,349)"/>
<path d="M0 0 C7.24831395 2.40747571 11.76993712 9.27979616 15.1875 15.7265625 C16.0846875 17.2734375 16.0846875 17.2734375 17 18.8515625 C19.57946992 25.23390808 19.39107724 33.74577326 16.8515625 40.03515625 C15.1875 42.7265625 15.1875 42.7265625 12.1875 44.7265625 C7.89208136 45.54473748 5.3034494 44.48663444 1.6875 42.2890625 C-3.12066746 38.84887534 -6.0320237 34.89539665 -8.8125 29.7265625 C-9.1528125 29.12328125 -9.493125 28.52 -9.84375 27.8984375 C-12.85296868 21.48991623 -12.60056519 13.62599595 -11.8125 6.7265625 C-9.16475104 1.11364438 -6.36186327 -1.00573574 0 0 Z " fill="#AB9DDB" transform="translate(74.8125,310.2734375)"/>
<path d="M0 0 C2.54824525 2.54824525 2.36743939 7.61525765 2.58032227 11.06323242 C2.39261654 14.99848082 1.80720765 17.20797554 -1.05078125 20.01220703 C-6.46745188 23.89300385 -12.36065886 26.87120293 -18.36914062 29.72338867 C-20.68230996 30.8458425 -22.86562359 32.05781053 -25.06640625 33.3828125 C-28 35 -28 35 -30.375 34.5625 C-31.24125 34.046875 -32.1075 33.53125 -33 33 C-34.60344032 32.12366967 -36.20766404 31.24877184 -37.8125 30.375 C-39.20996569 29.58621838 -40.60635 28.79550392 -42 28 C-42.05379226 25.04142591 -42.09357093 22.08382279 -42.125 19.125 C-42.14175781 18.28324219 -42.15851563 17.44148438 -42.17578125 16.57421875 C-42.18222656 15.76855469 -42.18867188 14.96289062 -42.1953125 14.1328125 C-42.20578613 13.38918457 -42.21625977 12.64555664 -42.22705078 11.87939453 C-42 10 -42 10 -40 8 C-37.38419521 8.3269756 -35.35921863 8.82039068 -33 10 C-25.32987574 11.23482832 -20.53139593 8.54996097 -14.25 4.4375 C-12.61784549 3.3813249 -10.97744435 2.3377584 -9.328125 1.30859375 C-8.6155957 0.84251709 -7.90306641 0.37644043 -7.16894531 -0.10375977 C-4.38951566 -1.25226115 -2.83329978 -0.87371142 0 0 Z " fill="#FDFCFD" transform="translate(406,421)"/>
<path d="M0 0 C1.46284459 18.76942137 1.46284459 18.76942137 -1.65234375 23.51953125 C-4.04086839 25.04331762 -6.34878377 26.00725384 -9 27 C-10.82925195 28.09755117 -12.64228722 29.2226145 -14.4375 30.375 C-18.73846154 33 -18.73846154 33 -21 33 C-21.10852923 30.12397545 -21.1875515 27.25209168 -21.25 24.375 C-21.28351563 23.56675781 -21.31703125 22.75851562 -21.3515625 21.92578125 C-21.44083375 16.43559951 -20.82938661 13.23056045 -17 9 C-14.57493315 7.1457416 -12.03229953 5.62163997 -9.375 4.125 C-8.694375 3.7228125 -8.01375 3.320625 -7.3125 2.90625 C-2.31058673 0 -2.31058673 0 0 0 Z " fill="#E5DFF4" transform="translate(512,357)"/>
<path d="M0 0 C4.61577758 1.68010691 8.79145971 3.97914605 13.0625 6.375 C13.76955078 6.76171875 14.47660156 7.1484375 15.20507812 7.546875 C18.99236283 9.66633198 22.09805737 11.69856917 25 15 C17.33850943 19.80046716 9.60283766 24.47425771 1.8125 29.0625 C0.97485107 29.56370361 0.13720215 30.06490723 -0.72583008 30.58129883 C-1.90375122 31.27002075 -1.90375122 31.27002075 -3.10546875 31.97265625 C-3.80824951 32.38781494 -4.51103027 32.80297363 -5.23510742 33.23071289 C-5.81752197 33.48457764 -6.39993652 33.73844238 -7 34 C-7.66 33.67 -8.32 33.34 -9 33 C-8.236875 32.195625 -7.47375 31.39125 -6.6875 30.5625 C0.39702558 21.83227726 -0.33475388 10.70058082 0 0 Z " fill="#332A51" transform="translate(175,380)"/>
<path d="M0 0 C7.93011718 3.77822337 15.990761 7.64648675 23 13 C23 13.66 23 14.32 23 15 C22.26885986 15.40839111 21.53771973 15.81678223 20.78442383 16.23754883 C18.05376892 17.76329278 15.32350786 19.28973854 12.59350586 20.81665039 C10.83802811 21.79822596 9.08210323 22.77900173 7.32617188 23.75976562 C6.21435547 24.38173828 5.10253906 25.00371094 3.95703125 25.64453125 C2.93585205 26.21534424 1.91467285 26.78615723 0.86254883 27.37426758 C-1.03849197 28.45392904 -2.91015385 29.58711515 -4.74731445 30.7722168 C-5.49070068 31.17738525 -6.23408691 31.58255371 -7 32 C-7.66 31.67 -8.32 31.34 -9 31 C-8.401875 30.29875 -7.80375 29.5975 -7.1875 28.875 C-2.42882485 22.62074123 -1.40678466 17.26891823 -0.8125 9.625 C-0.73064453 8.69816406 -0.64878906 7.77132813 -0.56445312 6.81640625 C-0.36540984 4.54497113 -0.17758351 2.27319644 0 0 Z " fill="#322A50" transform="translate(341,476)"/>
<path d="M0 0 C2.0625 0.25 2.0625 0.25 5 1 C9.455 1.99 9.455 1.99 14 3 C14 10.59 14 18.18 14 26 C8.31466391 27.42133402 5.46066382 25.70307658 0.5390625 22.78125 C-3.52010618 18.33489907 -2.99442805 13.99900362 -2.78613281 8.22338867 C-2.36237101 2.36237101 -2.36237101 2.36237101 0 0 Z " fill="#C4B6E6" transform="translate(366,429)"/>
<path d="M0 0 C7.24831395 2.40747571 11.76993712 9.27979616 15.1875 15.7265625 C16.0846875 17.2734375 16.0846875 17.2734375 17 18.8515625 C19.57946992 25.23390808 19.39107724 33.74577326 16.8515625 40.03515625 C15.1875 42.7265625 15.1875 42.7265625 12.1875 44.7265625 C6.68921966 45.77385399 3.45112898 43.35369328 -0.95703125 40.4296875 C-3.01976525 38.53631482 -3.45008239 37.45954775 -3.8125 34.7265625 C-1.60800567 35.75007772 0.22593541 36.7575588 2.125 38.2890625 C4.56221532 39.98772773 6.2304401 40.50478301 9.1875 40.7265625 C12.00558486 39.9213954 12.91701909 39.172856 14.4375 36.6640625 C16.53221337 28.45976846 14.97296398 21.23127243 11.1875 13.7265625 C8.18558614 9.43612413 5.15490223 5.68401407 0.1875 3.7265625 C-3.08558913 3.86015797 -5.04722057 4.0706087 -7.5625 6.2265625 C-9.39586492 9.89329233 -10.08335931 13.71199965 -10.8125 17.7265625 C-11.1425 17.7265625 -11.4725 17.7265625 -11.8125 17.7265625 C-12.37562292 5.81755549 -12.37562292 5.81755549 -8.8125 1.7265625 C-5.50178385 -0.4805816 -3.87847305 -0.61314096 0 0 Z " fill="#B0A1E6" transform="translate(74.8125,310.2734375)"/>
<path d="M0 0 C5.06128446 0.86172731 7.12468449 3.98380863 10 8 C14.01823556 14.70550981 15.15371733 20.16041641 15 28 C10.21413886 26.87391503 8.12820625 24.1983717 5.42578125 20.34375 C1.37722576 13.68859029 -0.57651229 7.7829159 0 0 Z " fill="#5D4E92" transform="translate(308,448)"/>
<path d="M0 0 C6.49735326 2.92660955 9.81877532 7.91096891 12.375 14.4375 C13.95686123 19.17001044 14.37413862 23.04266331 14 28 C8.35693929 26.67222101 5.9440156 22.64085457 3 18 C0.06582807 12.53636951 -0.95276419 7.16427297 -1 1 C-0.67 0.67 -0.34 0.34 0 0 Z " fill="#5C4D91" transform="translate(77,315)"/>
<path d="M0 0 C6.19717087 2.77804212 9.66109276 7.70139681 12.375 13.8125 C14.27330484 18.91909692 14.41277498 23.61099335 14 29 C6.5891681 25.11813567 2.59299011 17.80320388 0 10 C-0.1953125 7.32421875 -0.1953125 7.32421875 -0.125 4.6875 C-0.10695312 3.80449219 -0.08890625 2.92148437 -0.0703125 2.01171875 C-0.04710937 1.34785156 -0.02390625 0.68398438 0 0 Z " fill="#5C4D91" transform="translate(143,353)"/>
<path d="M0 0 C2.475 0.99 2.475 0.99 5 2 C5 10.25 5 18.5 5 27 C0.38 29.64 -4.24 32.28 -9 35 C-7 31 -7 31 -5 28.25 C-1.13504829 21.96945346 -0.67461718 15.20329644 -0.375 8 C-0.31699219 6.83791016 -0.31699219 6.83791016 -0.2578125 5.65234375 C-0.16478643 3.76856585 -0.08136825 1.88431744 0 0 Z " fill="#332B52" transform="translate(109,341)"/>
<path d="M0 0 C5.02688962 2.5647396 8.8387046 6.35652347 12 11 C12.875 13.9375 12.875 13.9375 13 16 C10.00169881 13.08422086 7.33077661 9.92387963 4.62109375 6.7421875 C2.20249161 4.1429187 1.19158806 4.01393368 -2.4375 3.75 C-5.89290387 3.68537246 -5.89290387 3.68537246 -7.875 5.3125 C-10.42045915 9.13068872 -10.10325928 12.74473878 -10.0625 17.1875 C-10.05347656 18.45980469 -10.04445312 19.73210937 -10.03515625 21.04296875 C-10.02355469 22.01878906 -10.01195312 22.99460937 -10 24 C-13.28225283 20.71774717 -13.19257893 17.13150758 -13.3125 12.625 C-13.27763712 7.40951278 -12.46252485 4.86988072 -9 1 C-5.89046621 -0.5547669 -3.43733239 -0.28644437 0 0 Z " fill="#CEC7E5" transform="translate(142,349)"/>
<path d="M0 0 C1.2263757 2.45275141 1.11415314 4.0505781 1.09765625 6.7890625 C1.09282227 8.20058594 1.09282227 8.20058594 1.08789062 9.640625 C1.07951172 10.62546875 1.07113281 11.6103125 1.0625 12.625 C1.05798828 13.61757813 1.05347656 14.61015625 1.04882812 15.6328125 C1.03702145 18.0886016 1.020554 20.54427104 1 23 C-0.875 23.625 -0.875 23.625 -3 24 C-5 22 -5 22 -5.22705078 19.84521484 C-5.21657715 18.97590332 -5.20610352 18.1065918 -5.1953125 17.2109375 C-5.18886719 16.26992188 -5.18242187 15.32890625 -5.17578125 14.359375 C-5.15902344 13.37453125 -5.14226562 12.3896875 -5.125 11.375 C-5.11597656 10.38242187 -5.10695313 9.38984375 -5.09765625 8.3671875 C-5.07404116 5.91121866 -5.04110799 3.45572832 -5 1 C-3.35 0.67 -1.7 0.34 0 0 Z " fill="#D4CBEF" transform="translate(379,432)"/>
<path d="M0 0 C6.61102476 2.19580465 10.91629036 8.24859184 14.47265625 13.9296875 C15.1875 15.7265625 15.1875 15.7265625 14.1875 18.7265625 C13.81238281 18.13488281 13.43726562 17.54320312 13.05078125 16.93359375 C7.89608344 8.50771452 7.89608344 8.50771452 -0.3125 3.6015625 C-3.88983632 3.42288853 -3.88983632 3.42288853 -6.625 5.6015625 C-9.36847684 9.52081513 -10.13007084 13.05141345 -10.8125 17.7265625 C-11.1425 17.7265625 -11.4725 17.7265625 -11.8125 17.7265625 C-12.37562292 5.81755549 -12.37562292 5.81755549 -8.8125 1.7265625 C-5.50178385 -0.4805816 -3.87847305 -0.61314096 0 0 Z " fill="#C9C2E3" transform="translate(74.8125,310.2734375)"/>
<path d="M0 0 C0.33 0 0.66 0 1 0 C0.71860476 3.65813817 0.43656214 6.31896306 -1.5625 9.4375 C-4.34420478 11.22064409 -6.52652194 11.6823864 -9.83203125 11.52734375 C-13.9101006 10.53538094 -17.10340041 7.96883399 -20 5 C-20.33 4.01 -20.66 3.02 -21 2 C-20.01 2 -19.02 2 -18 2 C-17.443125 2.639375 -16.88625 3.27875 -16.3125 3.9375 C-12.86419858 7.01301208 -10.60937344 7 -6 7 C-3.20823583 4.94291061 -1.92823605 2.89235408 0 0 Z " fill="#AF9FE6" transform="translate(158,382)"/>
<path d="M0 0 C2.02008133 0.98759532 3.99333131 1.99605818 5.9296875 3.140625 C10.3265149 5.64867022 10.3265149 5.64867022 15.3125 5.4375 C17.71395644 4.15300004 19.28821166 3.09218575 21 1 C21.8125 2.6875 21.8125 2.6875 22 5 C19.48701555 8.45535361 17.89891541 9.81343265 13.6875 10.6875 C8.76510502 9.76976534 5.51780446 7.52589137 2 4 C0.76953125 1.796875 0.76953125 1.796875 0 0 Z " fill="#AC9CE4" transform="translate(302,478)"/>
<path d="M0 0 C4.77595029 2.57901316 7.91696536 5.60901127 11 10 C10.67 10.99 10.34 11.98 10 13 C9.5153125 12.36191406 9.030625 11.72382813 8.53125 11.06640625 C4.16842667 5.42125382 4.16842667 5.42125382 -2.125 2.625 C-7.13452266 3.10979252 -8.54802132 4.46172186 -12 8 C-12.33 7.01 -12.66 6.02 -13 5 C-8.96391138 -0.84536973 -6.93337804 -1.50223191 0 0 Z " fill="#C8C0E1" transform="translate(308,444)"/>
<path d="M0 0 C1.20029908 2.40059817 1.11459743 3.89360649 1.09765625 6.5703125 C1.09282227 7.91416016 1.09282227 7.91416016 1.08789062 9.28515625 C1.07951172 10.22230469 1.07113281 11.15945313 1.0625 12.125 C1.05798828 13.06988281 1.05347656 14.01476562 1.04882812 14.98828125 C1.03702357 17.32558387 1.02055759 19.66276061 1 22 C-0.32 22.33 -1.64 22.66 -3 23 C-3.08706892 19.72933434 -3.14041241 16.45896635 -3.1875 13.1875 C-3.21263672 12.25873047 -3.23777344 11.32996094 -3.26367188 10.37304688 C-3.27333984 9.48037109 -3.28300781 8.58769531 -3.29296875 7.66796875 C-3.3086792 6.84578857 -3.32438965 6.0236084 -3.34057617 5.17651367 C-2.92566921 2.52497566 -2.04470249 1.66736408 0 0 Z " fill="#E8E4F6" transform="translate(382,431)"/>
<path d="M0 0 C0.07347656 1.42892578 0.07347656 1.42892578 0.1484375 2.88671875 C0.22320312 4.14097656 0.29796875 5.39523437 0.375 6.6875 C0.44460938 7.92886719 0.51421875 9.17023438 0.5859375 10.44921875 C0.9670717 13.71762432 1.71282232 16.0122827 3 19 C3 19.99 3 20.98 3 22 C2.34 22 1.68 22 1 22 C-2.27673166 14.73420371 -3.15600706 8.95636028 -3 1 C-1 0 -1 0 0 0 Z " fill="#B4A9D8" transform="translate(297,451)"/>
<path d="M0 0 C5.71993685 7.01773765 6.50458114 15.21655049 6 24 C5.01 24.33 4.02 24.66 3 25 C3.03480469 24.32195312 3.06960938 23.64390625 3.10546875 22.9453125 C3.32370323 15.4422033 2.38668022 8.77336043 -1 2 C-0.67 1.34 -0.34 0.68 0 0 Z " fill="#B1A5D8" transform="translate(319,455)"/>
<path d="M0 0 C3.73758459 3.73758459 4.86500195 8.85656154 5.19140625 14.0390625 C5.18796918 16.69935192 5.13407605 19.34330784 5 22 C2 20 2 20 1.3046875 16.62890625 C1.14789836 15.27493901 1.00518992 13.91928322 0.875 12.5625 C0.32336678 7.20859238 0.32336678 7.20859238 -1 2 C-0.67 1.34 -0.34 0.68 0 0 Z " fill="#A498D0" transform="translate(155,363)"/>
<path d="M0 0 C1.485 0.99 1.485 0.99 3 2 C2.67 2.99 2.34 3.98 2 5 C1.93029948 7.39490986 1.91551997 9.79167691 1.9375 12.1875 C1.94652344 13.45980469 1.95554688 14.73210937 1.96484375 16.04296875 C1.97644531 17.01878906 1.98804688 17.99460937 2 19 C-0.77796325 16.22203675 -0.94438557 14.14173144 -1.1328125 10.2734375 C-1.13023437 9.31695312 -1.12765625 8.36046875 -1.125 7.375 C-1.12757813 6.41335938 -1.13015625 5.45171875 -1.1328125 4.4609375 C-1 2 -1 2 0 0 Z " fill="#C2B8E3" transform="translate(130,354)"/>
<path d="M0 0 C0 2.64 0 5.28 0 8 C-3.45925163 6.7508258 -6.14693203 5.32472205 -9 3 C-7.68825887 2.4980125 -6.37558403 1.99846423 -5.0625 1.5 C-4.33160156 1.2215625 -3.60070312 0.943125 -2.84765625 0.65625 C-1 0 -1 0 0 0 Z " fill="#45396A" transform="translate(235,365)"/>
<path d="M0 0 C4.52048227 3.49253699 8.02618741 6.4486521 10 12 C9.67 12.99 9.34 13.98 9 15 C8.60167969 14.38511719 8.20335938 13.77023437 7.79296875 13.13671875 C7.26316406 12.32847656 6.73335938 11.52023437 6.1875 10.6875 C5.66542969 9.88699219 5.14335938 9.08648437 4.60546875 8.26171875 C3.11048518 5.99976106 3.11048518 5.99976106 1.30078125 4.39453125 C0 3 0 3 0 0 Z " fill="#C0B7E0" transform="translate(80,314)"/>
<path d="M0 0 C6.92613636 5.42045455 6.92613636 5.42045455 8 9 C7.67 9.99 7.34 10.98 7 12 C6.01287122 10.75627811 5.03560095 9.50472782 4.0625 8.25 C3.51722656 7.55390625 2.97195312 6.8578125 2.41015625 6.140625 C1.02574346 4.03907872 0.43713013 2.45678201 0 0 Z " fill="#C1B8E0" transform="translate(147,353)"/>
<path d="M0 0 C2 2 2 2 2.1953125 4.3828125 C2.17210937 5.28773438 2.14890625 6.19265625 2.125 7.125 C2.10695313 8.03507812 2.08890625 8.94515625 2.0703125 9.8828125 C2.03550781 10.93082031 2.03550781 10.93082031 2 12 C1.01 12.33 0.02 12.66 -1 13 C-0.67 8.71 -0.34 4.42 0 0 Z " fill="#B7AAE7" transform="translate(323,467)"/>
<path d="M0 0 C2 1 2 1 3.125 3.375 C4 6 4 6 4 9 C3.34 9 2.68 9 2 9 C0.50178941 5.62902617 0 3.79557881 0 0 Z " fill="#B9ACE4" transform="translate(296,464)"/>
<path d="M0 0 C2.76223278 2.76223278 2.57856291 5.20706617 3 9 C0 7 0 7 -0.75 3.9375 C-0.8325 2.968125 -0.915 1.99875 -1 1 C-0.67 0.67 -0.34 0.34 0 0 Z " fill="#A79BD1" transform="translate(90,328)"/>
</svg>
